# xmcd
#
# Track frame offsets:
#	150
#	24062
#	50707
#	75012
#	96500
#	120052
#
# Disc length: 1668 seconds
#
# Revision: 0
# Processed by: cddbd v1.4PL0 Copyright (c) Steve Scherf et al.
# Submitted via: audiograbber 1.81.02
#
DISCID=33068206
DTITLE=George Michael, Queen, Lisa Stansfield - Five Live
DYEAR=1992
DGENRE=Rock
TTITLE0=George Michael, Queen - Somebody to Love
TTITLE1=George Michael - Killer
TTITLE2=George Michael - Papa Was a Rolling Stone
TTITLE3=George Michael, Queen, Lisa Stansfield - These Are the Days of Our Live
TTITLE3=s
TTITLE4=George Michael - Calling you
TTITLE5=Queen - Dear Friends
EXTD=
EXTT0=
EXTT1=
EXTT2=
EXTT3=
EXTT4=
EXTT5=
PLAYORDER=
